<?xml version="1.0" encoding="UTF-8" standalone="no"?><!DOCTYPE svg PUBLIC "-//W3C//DTD SVG 1.1//EN" "http://www.w3.org/Graphics/SVG/1.1/DTD/svg11.dtd"><svg width="100%" height="100%" viewBox="0 0 463 112" version="1.1" xmlns="http://www.w3.org/2000/svg" style="fill-rule:evenodd;clip-rule:evenodd;stroke-linejoin:round;stroke-miterlimit:2;"><g><g><circle cx="55.708" cy="55.708" r="55.708" style="fill:#ebebeb;"/><path d="M65.506,104.41l7.854,-2.424l3.706,-1.189l5.5,-3.449l2.867,-2.517l4.568,-4.288l4.731,-7.156l5.617,-7.271l3.566,-10.162l-0,-14.38c-0,0 -1.165,-2.657 -1.165,-2.89l-0,-1.701l-0.793,-1.515l0,-2.89l-1.608,-4.871l-2.657,-6.736l-1.608,-2.004l-5.197,-6.223l-6.643,-6.665l-9.229,-5.617l-8.95,-3.286l-5.803,-1.469l6.945,0l-1.142,-0.513l-3.169,-0.978l-8.251,-0.536l-8.367,0.536l-7.132,2.354l-9.532,5.127l-7.388,5.99l-6.363,6.059l0,1.539l-1.887,2.097l-2.96,4.289l-2.984,6.036l1.025,-0.577l-1.537,2.739l-1.079,1.862l-0.382,2.444l0.783,-0.754l-0.401,3.562l-0.98,4.591l0,4.134l-0.315,3.045l0.315,4.461l0.98,4.172l1.079,3.656l0,-4.095l1.537,4.677l0.766,1.91l0.445,-0.447l1.069,2.205l2.639,3.914l3.06,3.733l-3.723,-3.408c0,-0 0.458,1.298 0.229,1.193c-0.229,-0.105 -1.059,-1.193 -1.059,-1.193l-0.392,1.861l-1.075,-1.012l1.973,3.971l3.245,5.213l3.161,3.556l5.897,4.987l7.528,3.879l0.998,-0l0.373,0.639l1.372,0l1.984,0.686l1.599,0l3.651,1.099l7.712,1.064l7.055,0l5.332,-0.537l2.61,-0.527" style="fill:#0042ff;"/><path d="M61.525,57.133l-0.141,1.678l-0.489,2.403l-0.376,0.988l-0.804,-0.601l0.804,-0.387l-0.424,-0.315l-1.98,-0l-0.785,1.948l-0.334,0.928l-0.646,0.594l0.471,1.158l0.353,0.166l0.276,-0.375l0.542,0.699l0.699,-0l-0,-1.257l-0.819,-0.615l0.586,-1.006l0.233,-0.746l0.186,0c-0,0 0.356,0.308 0.366,0.454c0.011,0.146 -0.366,0.751 -0.366,0.751l0.366,0.547l0.282,0.224l-0,1.324l-1.067,0.908l-0.586,-0.155l-0.24,-0.429l-0.458,0.287l0.156,0.662l-0.156,0.495l-0.824,0.15l-0.512,0.424l-0.685,0.465l-0.623,-0l0.623,0.492l0.307,0.333l-0,0.716l-0.93,-0l-0.7,-0.39l-0.378,0.39l-0.384,1.063l0.215,0.723l0.547,0.398l0.88,-0c0,-0 1.128,-0.156 1.128,-0.398c-0,-0.241 0.319,-1.064 0.319,-1.064l0.664,-0.722l0.811,-0.195l0.483,-0.195l1.128,0.619l0.852,0.602l0,0.232l-0.38,-0c-0.19,-0 -0.472,0.482 -0.472,0.482l0.472,0.241l0.38,-0.241l0,-0.3l0.424,0l-0.113,-0.182l0.489,-0c0,-0 0.299,-0.341 0.15,-0.341c-0.15,0 -0.795,-0.194 -0.795,-0.194l-0.725,-0.723l-1.067,-0.521l0.419,-0.333c-0,0 0.838,0.463 0.838,0.659c-0,0.195 1.18,0.195 1.18,0.195l0.489,0.723l0.606,0.303l-0,-0.446l-0.313,-0.58l0.658,-0.521l0.498,-0.333l-0.498,-0.492l0.179,-0.713l0.319,-0.522l0.642,0.196l0.633,-0.196c-0,0 -0.066,-0.13 -0.242,-0.299c-0.176,-0.17 -0.391,-0.377 -0.391,-0.377l1.017,0.012l0.921,-0.012l0.248,0.676c-0,0 -0.341,0.046 -0.498,0.196c-0.156,0.15 -1.055,0.801 -1.055,0.801l-1.149,0.867l-0.445,0.522l0.445,0.482l0.76,0.293l0.975,-0.673l0.273,-0.428l0.446,-0.196l0.465,0.717l0,0.424l-0.217,0.602l-0.556,0.414l-1.262,0.74l-2.094,0l0,1.059l-2.034,-0.183l-0.838,-0l-0,-0.876l-2.056,0l-2.077,0.553l-2.302,0.883l-0.712,0.876l-2.139,1.364l0,1.328l-0.743,0.919l-0,0.92l0.743,0.387l0.479,1.334l1.66,0.931l3.014,0.494l2.372,-0.494l1.342,0.494l1.637,-0.494l0,1.543l0.534,0.713l2.128,1.385l0.591,0.927l-1.144,1.486l0,0.805l1.816,0.977l1.68,1.507l1.846,0.5l0.32,0.84l1.192,0l3.506,-2.04l1.382,-1.303l1.088,-1.922l0.815,-2.151l-0,-0.697l-0.815,-0.314l0.815,-1.531l0.97,-1.656l-0.462,-0.807l-1.955,-0.914l0.274,-1.839l0.613,-3.568l-0.613,-2.699l-2.112,2.901l-1.155,-0l-2.351,-0.579l-3.298,-1.546l0.838,0.047l-0.141,-0.714l1.749,0.647l1.555,0.551l1.838,0.417l0.561,0.257l1.546,-2.703l0.397,-2.006l0,-1.731l-0.767,0.142l-1.176,1.589l-1.024,0.465l-1.758,-0.465l-0.06,-0.066l0.582,-0.415l1.846,-0l0.65,-0.887l0.704,-0.89l1.003,-1.845l1.441,-1.253l1.114,-0.547l1.336,0.189l1.271,-0.761l1.339,0l0,-1.097l-1.547,-0.677c-0,-0 -0.802,-0.489 -0.815,-0.58c-0.013,-0.092 -0.475,-1.597 -0.475,-1.597l-0.948,-1.357l-0.161,-1.303c0,0 0.881,-1.026 1.109,-1.091c0.227,-0.065 0.948,-0.399 0.948,-0.399l-0,-1.084l0.799,0l1.36,-0.497l0.878,-1.572l0.54,-1.157c-0,0 0.204,-0.554 -0,-0.521c-0.204,0.032 -0.733,0.521 -0.733,0.521l-0.685,1.157l-0.641,0.912l-0.515,0.318l-0.661,-0.595l0.661,-1.295l0.342,-0.497l-1.345,-1.548l-0.948,0.766l-0.575,0.782l-0.534,0.497l-1.114,-0.831l-0,-0.749l-1.097,-1.549l-1.108,-0.708l-1.593,-0.309l-0.965,1.017l-0.881,1.296l-0.357,0.253l-1.252,-0.788c-0,-0 -0.334,-0.438 -0.167,-0.6c0.167,-0.161 0.558,-0.313 0.626,-0.349c0.067,-0.037 0.793,-0.829 0.793,-0.829c0,-0 0.34,-0.591 0,-0.591l-0.986,-0c-0,-0 -0.699,0.429 -0.735,0.591c-0.037,0.162 -0.135,0.596 -0.135,0.596l-1.023,-0c-0.12,-0 -0.448,-0.596 -0.448,-0.596l-0.918,-0l-1.042,0.309l-0.866,0.287l-0.215,0.421l-0.342,0.761l0,0.788l-0.923,-0c0,-0 -0.834,0.252 -1.023,-0c-0.189,-0.253 -0.612,-1.162 -0.612,-1.162l-1.398,0.374l-0,-0.761l1.218,-0.421l0.675,-1.187l-0.495,-0.226l-1.024,0.226c0,-0 -0.471,0.614 -0.632,0.9c-0.161,0.287 -0.161,0.52 -0.161,0.52l-0.921,0.349l-1.427,-0.349l-0.402,0.949l-0,0.535l-1.178,0.253l1.178,1.36l1.113,0.22l1.303,0.349l1.591,1.541l0.38,0.839l0,1.856l-0.38,0.346l0.56,1.131l1.25,1.425Zm-30.658,3.856l-1.23,0.626l-1.114,-0.71l-0.154,-0.9l-1.866,0l-0.919,1.91l-0.726,0.971l-0.652,0.567l-0.154,3.48l-1.076,0.364l-2.886,-0l-1.147,0.229l-2.861,-0.593l-1.701,-0.704l-1.036,0.241l-0.482,0.827l0.26,3.279l0.222,1.307l0.723,1.409l0.713,0.912l-0.138,-1.197l-0,-1.124l0.358,-0.277l0.733,0.562l1.124,1.124l-0.22,-1.409c0,-0 1.556,1.124 1.491,1.124c-0.065,-0 1.067,0.994 1.067,0.994l1.515,1.409l0.766,1.116l1.1,0.504l0.399,-0.504l0,-0.757l1.23,2.18l0.652,0.646l1.645,0.274l0.831,0.818l1.035,-0l0.399,-0.293l1.255,0.716l1.71,1.411l3.169,0l1.303,-1.215l1.956,0.391l0.391,-0.587l-0.196,-0.716l-1.931,-2.364l-1.523,-1.62l-0.204,-1.694l0.375,-1.833l-0.375,-0.88l-0.871,-1.491l-0,-1.507l0.309,-0.708l-0.668,-1.385c0,-0 -0.635,-1.662 -0.659,-1.939c-0.025,-0.277 -0.473,-1.426 -0.473,-1.426l-0.603,-0.932l-0.275,-0.279l0.09,-0.566l0,-1.887l1.027,-0.553c0,-0 0.397,-0.594 0.397,-0.839l-0,-0.788l1.194,0.24c-0,0 0.531,0.005 0.521,-0.24c-0.011,-0.245 -0.042,-0.995 -0.042,-0.995l-1.063,-0.61l-0,-0.824l0.719,-1.095l0.667,-0.167l1.184,0.475l0.542,0.26l0.438,1.351l-0.438,0.327l0.248,0.888l0.19,0.63l0,1.023l-0.98,0.364l-0.432,0.553l0.758,-0l1.108,-0.553l1.246,0.883l0.473,0.792l1.173,0l1.002,0.552l0.57,0.213l0.774,-0l0.218,0.446l-0,0.954c-0,0.047 0.443,0.464 0.443,0.464l0.224,-0.691l0.193,-0.56l0.229,-0.613l0.444,0.446l0.531,0.727c0,-0 -0.099,0.227 -0.161,0.227c-0.063,-0 -0.37,0.964 -0.37,0.964l0.531,0.798l0.527,-1.11l0.824,-1.439l0.146,-0.826l0.899,-0.957l-0.697,-0.189l0.697,-1.081l-0.241,-0.581l-0.804,-0l-1.512,0.449l-0.814,-0.449l0.814,-0.548l0.161,-1.14l0.825,-0.963l0.874,0.148l0.697,0.639l0.756,0.428l-0.25,0.888l-0.203,2.012l0.961,0.387l0.878,-0.189l0.845,-1.081l0.509,-2.269l0.265,-1.787l-0.265,-1.566l-0.509,-0.479l0.774,-1.252c-0,-0 1.985,-0.744 2.067,-0.825c0.081,-0.082 0.346,-0.346 0.346,-0.346l-0,-2.414c-0,0 -0.346,-0.875 -0.346,-0.845c-0,0.031 -1.324,-0.03 -1.324,-0.03l-1.008,0.387l-0,0.916l-1.12,0.794l-2.617,0l-2.316,-0.265l-1.043,-0.957l-0.86,-0.845l-2.247,0l-1.67,1.802l-2.973,1.202l-1.986,0.601l-0.584,0.825l-1.007,2.035l-0.385,2.234l-0.642,1.697l-0.641,0.258l-0.224,2.012l0.184,1.776Zm47.848,18.46l0.703,0.612l0.216,0.971l0.651,0.489l0.685,-0.332l0.782,-0.678l-0,-1.062l-0.444,-2.02l-1.023,-1.213l-0.651,0l0.299,1.415l-0.684,0.919l-0.534,0.521l-0,0.378Zm-61.448,-1.898l1.225,1.318l0,-0.555l-0.782,-1.284l-0.443,0.521Zm37.642,-9.639l0.799,-0.296l0.177,-0.384c0,0 -0.042,-0.533 -0.177,-0.608c-0.135,-0.076 -0.356,-0.413 -0.402,-0.539c-0.046,-0.125 -0.228,-0.62 -0.228,-0.62l-0.435,0c-0,0 -0.225,0.37 -0.113,0.454c0.113,0.083 0.379,0.579 0.379,0.579l-0.171,0.734l-0.095,0.568l0.266,0.112Zm-1.017,-0.413c0.104,-0.029 0.607,-0.17 0.607,-0.17l0.189,-0.64l-0.158,-0.353l-0.363,-0.113l-0.491,0.613l-0,0.588l0.216,0.075Zm11.769,-4.392l-0,0.032l-0.967,1.853l3.238,1.454l0.036,0.039l1.092,-0.708l-0.503,-0.888l-0.433,-0.392l-1.163,0.229l-0.173,-0.568l0,-0.61l-0.964,-0.391l-0.163,-0.05Zm16.091,-9.758l0.742,-1.364c-0,-0 0.978,-1.64 1.039,-1.711c0.061,-0.071 0.662,-1.436 0.662,-1.436l0.356,-1.364l0,-1.711l-0.723,-1.69l-0.295,-1.16l-0.509,-0l-0,0.916l0.509,1.08l0.662,0.854l-0,0.754l-0.367,0.957l-0.804,0.499c-0,-0 -0.224,1.1 -0.255,1.232c-0.03,0.132 -0.275,1.194 -0.275,1.194l-0.397,1.016l-0.345,1.069l-0.235,0.865l0.235,0Zm-3.037,-10.436l-0,1.271l1.518,0.725l0.591,1.001l0.928,0.994l0.742,-0.774l-0,-3.217l-3.779,-0Zm-10.259,1.35l-1.592,-0.7l-0.692,-0l-1.238,0.912l-1.092,0.434l0.852,-0.882c-0,0 -0.094,-0.595 0.24,-0.652c0.334,-0.057 1.238,-0.462 1.238,-0.462l0.904,-0l1.132,0.462l0.782,0.424c0,0 0.383,0.676 0.31,0.676c-0.073,0 -0.844,-0.212 -0.844,-0.212Zm6.178,0.089l1.027,-0.199l-0,-0.48l0.676,-0.461l-0.676,-0.299l-0.578,0.299l-0.734,0.461l0.285,0.679Zm0.709,-2.025l1.476,0l0.386,-1.147l-0,-0.472c-0,-0.098 -0.868,-0.575 -0.868,-0.575l-0.994,0.575l0,1.619Zm7.385,-0.805l-0.976,-1.922c-0,-0 -0.235,-0.399 -0.235,-0.595c-0,-0.195 -0.913,-0.823 -0.913,-0.945c0,-0.122 0.579,-0.122 0.579,-0.122l0.334,0.505l0.404,1.157l0.461,0.57l0.652,0.953l-0,1.204l-0.306,-0.805Zm-4.627,-1.389l1.091,1.097l0.538,0.512l0.874,-0l0.579,-0.212l-0,-0.847c-0,-0.057 -0.579,0.547 -0.579,0.547l0,-1.549l-0.371,-0.244c0,-0 -0.503,0.314 -0.503,0.505l-0,1.288c-0,-0 -0.25,-0.49 -0.538,-0.547c-0.288,-0.057 -0.676,-0.55 -0.676,-0.55l-0.415,-0.191l-0,0.191Zm9.962,1.609l0.741,-1.068l0.318,0.212l0,-1.018l0.245,0.195l0.276,-1.148l0.725,0.432c0,-0 0.392,-1.019 0.196,-1.141c-0.196,-0.122 -1.442,-1.588 -1.442,-1.588l-1.311,-2.053c-0,-0 -1.32,-1.133 -1.402,-1.181c-0.081,-0.049 -2.15,-2.436 -2.15,-2.436l-1.312,-1.344l-0.464,-1.67l-1.1,-2.208l-1.645,-1.605l-1.988,-1.621l-2.232,-1.083l-1.442,0.692l-1.197,-0.269l-1.133,1.068l0,1.213l1.133,1.605l1.197,1.809l0.627,2.281l0,0.928l1.646,-0.66l1.401,1.051l0.635,1.206l-0.904,-0l1.234,2.028l1.518,0.676l0.914,0.302l0.605,1.417l0.959,0.261l1.752,1.181l1.458,1.141l1.075,1.938l1.067,0.457Zm-11.244,-4.505l-0.875,-1.044l0,-0.891l-0.394,-0.407l-0.84,-0c-0.128,-0 -0.607,-1.248 -0.607,-1.4c0,-0.153 -1.163,-1.006 -1.163,-1.006c0,0 -0.588,-0.91 -0.891,-0.91c-0.303,0 -0.303,-0.923 -0.303,-1.177c0,-0.255 -0.397,-1.273 -0.397,-1.273l0.397,-0.306l0.647,1.197l0.891,1.184l0.819,-0l0.607,0.611c-0,-0 0.662,1.68 0.547,1.68c-0.115,-0 -0.115,0.471 -0.115,0.471l1.133,0.929l0.544,0.929l-0,1.413Zm-0,-15.972l0.946,0.321l0.601,0.613l0.349,0.225l-0,-1.243c-0,-0.033 -0.737,-0.346 -0.737,-0.346l-0.563,-0.308c0,-0 -0.179,0.308 -0.225,0.308c-0.046,0 -0.371,0.255 -0.371,0.255l-0,0.175Zm-16.724,-4.028l-1.063,-1.105l0.458,-0.417l-0.458,-0.276l-0,-0.485l-0.798,-0l-0.688,0.631l-0.725,0.547l1.225,0l0.678,0.662l0.308,0l0.286,0.443l0,0.563l0.777,-0.563Zm-0.38,-1.913l0.985,0.057l0.334,0.308l1.027,-0.735l2.633,-0l-0,-0.652l-1.945,-0.224l-1.204,0.224l-1.179,0l-0.651,1.022Z" style="fill:#00681d;"/><path d="M52.862,63.45c-0,0 0.814,0.134 0.814,0.114c-0,-0.02 0.28,-0.307 0.28,-0.307c0,-0 -0.063,-0.168 -0.127,-0.298c-0.063,-0.129 -0.38,-0.216 -0.38,-0.216c0,0 -0.127,-0.18 -0.177,-0.197c-0.05,-0.016 -0.41,0.197 -0.41,0.197c-0,0 -0.13,0.274 -0.104,0.394c0.027,0.12 0.104,0.313 0.104,0.313Zm-3.071,-1.296l0.473,-0.358l0.57,-0.269l2.234,-0l0.608,-1.238l0.823,-0.66l0.189,-1.523l0,-0.701l1.02,0.701l0.665,-0l0.856,-0.473l0.505,-1.215l0.497,0.221l-0,-1.621l0.646,-0.441l0.454,-0.968l-0.677,-0.741l0.223,-1.011l-0.646,-0.35l-1.41,-0.814l-0.936,-0.587l-0.177,-0.472l-1.02,-0l-1.012,0.472l-0.921,0.587l-0.919,1.164l0,0.799l0.196,0.212l-0.383,0.741l-0.386,0.665l-0,2.144l1.013,0.221l0.479,0.53l-0.919,-0l0,0.708l-0.187,0.497l-0.815,1.255l-1.043,0.871l-0.554,0.538l-0.171,0.758l0.171,0.985l0.554,0l-0.095,-0.314l0.095,-0.313Z" style="fill:#fff;"/></g><text x="148.22px" y="72.722px" style="font-family:'Koulen-Regular', 'Koulen';font-size:48.87px;fill:#fff;">Flat Earth Ipsum</text></g></svg>